<svg width="64" height="64" viewBox="0 0 64 64" fill="none" xmlns="http://www.w3.org/2000/svg">
<g clip-path="url(#clip0_128_119)">
<path d="M8.75477 29.1733C8.00571 29.9233 7.58496 30.94 7.58496 32C7.58496 33.06 8.00571 34.0767 8.75477 34.8267L23.8374 49.9147C24.209 50.2862 24.6501 50.5809 25.1356 50.782C25.621 50.9831 26.1413 51.0866 26.6668 51.0866C27.1922 51.0866 27.7125 50.9831 28.198 50.782C28.6835 50.5809 29.1246 50.2862 29.4961 49.9147C29.8677 49.5431 30.1624 49.102 30.3635 48.6165C30.5646 48.1311 30.6681 47.6108 30.6681 47.0853C30.6681 46.5599 30.5646 46.0396 30.3635 45.5541C30.1624 45.0686 29.8677 44.6275 29.4961 44.256L21.2401 36H52.0001C53.061 36 54.0784 35.5786 54.8285 34.8284C55.5787 34.0783 56.0001 33.0609 56.0001 32C56.0001 30.9391 55.5787 29.9217 54.8285 29.1716C54.0784 28.4214 53.061 28 52.0001 28H21.2401L29.4961 19.744C30.2461 18.9936 30.6674 17.976 30.6671 16.915C30.6669 15.8541 30.2452 14.8367 29.4948 14.0867C28.7444 13.3366 27.7268 12.9154 26.6658 12.9156C25.6049 12.9159 24.5875 13.3376 23.8374 14.088L8.75477 29.1733Z" fill="white"/>
</g>
<defs>
<clipPath id="clip0_128_119">
<rect width="64" height="64" fill="white"/>
</clipPath>
</defs>
</svg>
