<svg width="40" height="40" viewBox="0 0 40 40" fill="none" xmlns="http://www.w3.org/2000/svg">
<path d="M30 24.1667V18.3333C30 17.8913 29.8244 17.4674 29.5118 17.1548C29.1993 16.8423 28.7754 16.6667 28.3333 16.6667H26.6667C30.4 13.9833 31.2667 8.78333 28.5833 5C27.2848 3.21495 25.3335 2.01538 23.1545 1.66262C20.9755 1.30986 18.7454 1.83249 16.95 3.11667C15.8333 3.91667 14.9333 5 14.3333 6.21667C13.402 5.63967 12.3657 5.25257 11.2841 5.07768C10.2025 4.90278 9.09706 4.94352 8.0313 5.19757C6.96554 5.45162 5.96056 5.91395 5.07419 6.55794C4.18783 7.20194 3.43759 8.01489 2.86667 8.95C1.70891 10.8331 1.34647 13.099 1.85905 15.2493C2.37162 17.3996 3.71724 19.2583 5.6 20.4167C5.95 20.6167 6.3 20.8333 6.66667 20.9667V35C6.66667 35.442 6.84226 35.866 7.15482 36.1785C7.46738 36.4911 7.89131 36.6667 8.33333 36.6667H28.3333C28.7754 36.6667 29.1993 36.4911 29.5118 36.1785C29.8244 35.866 30 35.442 30 35V29.1667L36.6667 35.8333V17.5L30 24.1667ZM21.6667 6.66667C22.5507 6.66667 23.3986 7.01786 24.0237 7.64298C24.6488 8.2681 25 9.11594 25 10C25 10.8841 24.6488 11.7319 24.0237 12.357C23.3986 12.9821 22.5507 13.3333 21.6667 13.3333C20.7826 13.3333 19.9348 12.9821 19.3096 12.357C18.6845 11.7319 18.3333 10.8841 18.3333 10C18.3333 9.11594 18.6845 8.2681 19.3096 7.64298C19.9348 7.01786 20.7826 6.66667 21.6667 6.66667ZM10 10C10.8841 10 11.7319 10.3512 12.357 10.9763C12.9821 11.6014 13.3333 12.4493 13.3333 13.3333C13.3333 14.2174 12.9821 15.0652 12.357 15.6904C11.7319 16.3155 10.8841 16.6667 10 16.6667C9.11595 16.6667 8.2681 16.3155 7.64298 15.6904C7.01786 15.0652 6.66667 14.2174 6.66667 13.3333C6.66667 12.4493 7.01786 11.6014 7.64298 10.9763C8.2681 10.3512 9.11595 10 10 10Z" fill="white"/>
</svg>
