<svg width="335" height="100" viewBox="0 0 335 100" fill="none" xmlns="http://www.w3.org/2000/svg">
<g filter="url(#filter0_d_1_10)">
<rect x="12" y="13" width="75" height="75" rx="20" fill="#8E27F5"/>
<rect x="14.5" y="15.5" width="70" height="70" rx="17.5" stroke="white" stroke-width="5"/>
</g>
<path d="M100.761 61V37.7273H110.375C112.117 37.7273 113.621 38.0417 114.886 38.6705C116.159 39.2917 117.14 40.1856 117.83 41.3523C118.519 42.5114 118.864 43.8864 118.864 45.4773C118.864 47.0909 118.511 48.4621 117.807 49.5909C117.102 50.7121 116.102 51.5682 114.807 52.1591C113.511 52.7424 111.977 53.0341 110.205 53.0341H104.125V48.6023H109.159C110.008 48.6023 110.716 48.4924 111.284 48.2727C111.86 48.0455 112.295 47.7045 112.591 47.25C112.886 46.7879 113.034 46.197 113.034 45.4773C113.034 44.7576 112.886 44.1629 112.591 43.6932C112.295 43.2159 111.86 42.8598 111.284 42.625C110.708 42.3826 110 42.2614 109.159 42.2614H106.386V61H100.761ZM113.864 50.3636L119.659 61H113.523L107.841 50.3636H113.864ZM129.764 61.3295C127.938 61.3295 126.363 60.9697 125.037 60.25C123.719 59.5227 122.704 58.4886 121.991 57.1477C121.287 55.7992 120.935 54.197 120.935 52.3409C120.935 50.5379 121.291 48.9621 122.003 47.6136C122.715 46.2576 123.719 45.2045 125.014 44.4545C126.31 43.697 127.836 43.3182 129.594 43.3182C130.836 43.3182 131.973 43.5114 133.003 43.8977C134.033 44.2841 134.923 44.8561 135.673 45.6136C136.423 46.3712 137.007 47.3068 137.423 48.4205C137.84 49.5265 138.048 50.7955 138.048 52.2273V53.6136H122.878V50.3864H132.878C132.87 49.7955 132.73 49.2689 132.457 48.8068C132.185 48.3447 131.81 47.9848 131.332 47.7273C130.863 47.4621 130.321 47.3295 129.707 47.3295C129.086 47.3295 128.529 47.4697 128.037 47.75C127.545 48.0227 127.154 48.3977 126.866 48.875C126.579 49.3447 126.427 49.8788 126.412 50.4773V53.7614C126.412 54.4735 126.552 55.0985 126.832 55.6364C127.113 56.1667 127.51 56.5795 128.026 56.875C128.541 57.1705 129.154 57.3182 129.866 57.3182C130.359 57.3182 130.806 57.25 131.207 57.1136C131.609 56.9773 131.954 56.7765 132.241 56.5114C132.529 56.2462 132.745 55.9205 132.889 55.5341L137.991 55.6818C137.779 56.8258 137.313 57.822 136.594 58.6705C135.882 59.5114 134.946 60.1667 133.787 60.6364C132.628 61.0985 131.287 61.3295 129.764 61.3295ZM157.349 43.5455L151.361 61H144.997L139.02 43.5455H144.872L148.088 55.5682H148.27L151.497 43.5455H157.349ZM159.48 61V43.5455H165.037V61H159.48ZM162.264 41.5114C161.484 41.5114 160.813 41.2538 160.253 40.7386C159.692 40.2159 159.412 39.5871 159.412 38.8523C159.412 38.125 159.692 37.5038 160.253 36.9886C160.813 36.4659 161.484 36.2045 162.264 36.2045C163.052 36.2045 163.723 36.4659 164.276 36.9886C164.836 37.5038 165.116 38.125 165.116 38.8523C165.116 39.5871 164.836 40.2159 164.276 40.7386C163.723 41.2538 163.052 41.5114 162.264 41.5114ZM176.733 61.3295C174.907 61.3295 173.331 60.9697 172.006 60.25C170.688 59.5227 169.672 58.4886 168.96 57.1477C168.256 55.7992 167.903 54.197 167.903 52.3409C167.903 50.5379 168.259 48.9621 168.972 47.6136C169.684 46.2576 170.688 45.2045 171.983 44.4545C173.278 43.697 174.805 43.3182 176.562 43.3182C177.805 43.3182 178.941 43.5114 179.972 43.8977C181.002 44.2841 181.892 44.8561 182.642 45.6136C183.392 46.3712 183.975 47.3068 184.392 48.4205C184.809 49.5265 185.017 50.7955 185.017 52.2273V53.6136H169.847V50.3864H179.847C179.839 49.7955 179.699 49.2689 179.426 48.8068C179.153 48.3447 178.778 47.9848 178.301 47.7273C177.831 47.4621 177.29 47.3295 176.676 47.3295C176.055 47.3295 175.498 47.4697 175.006 47.75C174.513 48.0227 174.123 48.3977 173.835 48.875C173.547 49.3447 173.396 49.8788 173.381 50.4773V53.7614C173.381 54.4735 173.521 55.0985 173.801 55.6364C174.081 56.1667 174.479 56.5795 174.994 56.875C175.509 57.1705 176.123 57.3182 176.835 57.3182C177.328 57.3182 177.775 57.25 178.176 57.1136C178.578 56.9773 178.922 56.7765 179.21 56.5114C179.498 56.2462 179.714 55.9205 179.858 55.5341L184.96 55.6818C184.748 56.8258 184.282 57.822 183.562 58.6705C182.85 59.5114 181.915 60.1667 180.756 60.6364C179.597 61.0985 178.256 61.3295 176.733 61.3295ZM190.929 61L186.384 43.5455H191.963L194.315 54.7273H194.463L196.986 43.5455H202.429L205.02 54.6477H205.168L207.452 43.5455H213.031L208.474 61H202.531L199.804 50.8295H199.611L196.884 61H190.929ZM222.136 37.7273H229.102L235.011 52.1364H235.284L241.193 37.7273H248.159V61H242.682V46.7045H242.489L236.898 60.8523H233.398L227.807 46.625H227.614V61H222.136V37.7273ZM259.815 61.3295C257.982 61.3295 256.406 60.9545 255.088 60.2045C253.777 59.447 252.766 58.3939 252.054 57.0455C251.349 55.6894 250.997 54.1174 250.997 52.3295C250.997 50.5341 251.349 48.9621 252.054 47.6136C252.766 46.2576 253.777 45.2045 255.088 44.4545C256.406 43.697 257.982 43.3182 259.815 43.3182C261.649 43.3182 263.221 43.697 264.531 44.4545C265.849 45.2045 266.861 46.2576 267.565 47.6136C268.277 48.9621 268.634 50.5341 268.634 52.3295C268.634 54.1174 268.277 55.6894 267.565 57.0455C266.861 58.3939 265.849 59.447 264.531 60.2045C263.221 60.9545 261.649 61.3295 259.815 61.3295ZM259.849 57.1364C260.516 57.1364 261.08 56.9318 261.543 56.5227C262.005 56.1136 262.357 55.5455 262.599 54.8182C262.849 54.0909 262.974 53.25 262.974 52.2955C262.974 51.3258 262.849 50.4773 262.599 49.75C262.357 49.0227 262.005 48.4545 261.543 48.0455C261.08 47.6364 260.516 47.4318 259.849 47.4318C259.16 47.4318 258.577 47.6364 258.099 48.0455C257.63 48.4545 257.27 49.0227 257.02 49.75C256.777 50.4773 256.656 51.3258 256.656 52.2955C256.656 53.25 256.777 54.0909 257.02 54.8182C257.27 55.5455 257.63 56.1136 258.099 56.5227C258.577 56.9318 259.16 57.1364 259.849 57.1364ZM287.849 43.5455L281.861 61H275.497L269.52 43.5455H275.372L278.588 55.5682H278.77L281.997 43.5455H287.849ZM289.98 61V43.5455H295.537V61H289.98ZM292.764 41.5114C291.984 41.5114 291.313 41.2538 290.753 40.7386C290.192 40.2159 289.912 39.5871 289.912 38.8523C289.912 38.125 290.192 37.5038 290.753 36.9886C291.313 36.4659 291.984 36.2045 292.764 36.2045C293.552 36.2045 294.223 36.4659 294.776 36.9886C295.336 37.5038 295.616 38.125 295.616 38.8523C295.616 39.5871 295.336 40.2159 294.776 40.7386C294.223 41.2538 293.552 41.5114 292.764 41.5114ZM307.233 61.3295C305.407 61.3295 303.831 60.9697 302.506 60.25C301.188 59.5227 300.172 58.4886 299.46 57.1477C298.756 55.7992 298.403 54.197 298.403 52.3409C298.403 50.5379 298.759 48.9621 299.472 47.6136C300.184 46.2576 301.188 45.2045 302.483 44.4545C303.778 43.697 305.305 43.3182 307.062 43.3182C308.305 43.3182 309.441 43.5114 310.472 43.8977C311.502 44.2841 312.392 44.8561 313.142 45.6136C313.892 46.3712 314.475 47.3068 314.892 48.4205C315.309 49.5265 315.517 50.7955 315.517 52.2273V53.6136H300.347V50.3864H310.347C310.339 49.7955 310.199 49.2689 309.926 48.8068C309.653 48.3447 309.278 47.9848 308.801 47.7273C308.331 47.4621 307.79 47.3295 307.176 47.3295C306.555 47.3295 305.998 47.4697 305.506 47.75C305.013 48.0227 304.623 48.3977 304.335 48.875C304.047 49.3447 303.896 49.8788 303.881 50.4773V53.7614C303.881 54.4735 304.021 55.0985 304.301 55.6364C304.581 56.1667 304.979 56.5795 305.494 56.875C306.009 57.1705 306.623 57.3182 307.335 57.3182C307.828 57.3182 308.275 57.25 308.676 57.1136C309.078 56.9773 309.422 56.7765 309.71 56.5114C309.998 56.2462 310.214 55.9205 310.358 55.5341L315.46 55.6818C315.248 56.8258 314.782 57.822 314.062 58.6705C313.35 59.5114 312.415 60.1667 311.256 60.6364C310.097 61.0985 308.756 61.3295 307.233 61.3295ZM333.594 48.875L328.491 49.0114C328.438 48.6477 328.295 48.3258 328.06 48.0455C327.825 47.7576 327.518 47.5341 327.139 47.375C326.768 47.2083 326.336 47.125 325.844 47.125C325.2 47.125 324.651 47.2538 324.196 47.5114C323.749 47.7689 323.529 48.1174 323.537 48.5568C323.529 48.8977 323.666 49.1932 323.946 49.4432C324.234 49.6932 324.745 49.8939 325.48 50.0455L328.844 50.6818C330.586 51.0152 331.882 51.5682 332.73 52.3409C333.586 53.1136 334.018 54.1364 334.026 55.4091C334.018 56.6061 333.662 57.6477 332.957 58.5341C332.26 59.4205 331.306 60.1098 330.094 60.6023C328.882 61.0871 327.495 61.3295 325.935 61.3295C323.442 61.3295 321.476 60.8182 320.037 59.7955C318.605 58.7652 317.787 57.3864 317.582 55.6591L323.071 55.5227C323.192 56.1591 323.507 56.6439 324.014 56.9773C324.522 57.3106 325.17 57.4773 325.957 57.4773C326.67 57.4773 327.249 57.3447 327.696 57.0795C328.143 56.8144 328.37 56.4621 328.378 56.0227C328.37 55.6288 328.196 55.3144 327.855 55.0795C327.514 54.8371 326.98 54.6477 326.253 54.5114L323.207 53.9318C321.457 53.6136 320.154 53.0265 319.298 52.1705C318.442 51.3068 318.018 50.2083 318.026 48.875C318.018 47.7083 318.329 46.7121 318.957 45.8864C319.586 45.053 320.48 44.4167 321.639 43.9773C322.798 43.5379 324.166 43.3182 325.741 43.3182C328.105 43.3182 329.969 43.8144 331.332 44.8068C332.696 45.7917 333.45 47.1477 333.594 48.875Z" fill="white"/>
<g clip-path="url(#clip0_1_10)">
<path d="M27 53.5C27 64.822 36.3941 74 47.9826 74C59.5711 74 68.9652 64.822 68.9652 53.5C68.8368 49.6405 67.762 45.8674 65.8311 42.498L65.8946 42.62C64.8545 41.2953 64.2923 39.6716 64.2958 38.002C64.2958 34.502 68.0747 31 72.0338 31H72.5394C73.2004 30.9747 73.8257 30.7005 74.2843 30.2348C74.743 29.7692 74.9995 29.1482 75 28.5019C75.0005 27.8557 74.7451 27.2343 74.2872 26.7679C73.8293 26.3015 73.2044 26.0263 72.5435 26H72.0276C65.7329 26 60.347 29.28 59.0696 36C55.7764 33.8765 51.8793 32.8269 47.9376 33.002L47.9765 33C36.392 33.006 27.0041 42.18 27.002 53.498L27 53.5ZM45.4237 53.5C45.4242 53.0056 45.5746 52.5225 45.856 52.1116C46.1374 51.7008 46.5372 51.3806 47.0048 51.1917C47.4724 51.0028 47.9868 50.9536 48.4831 51.0503C48.9793 51.147 49.435 51.3852 49.7927 51.7349C50.1504 52.0847 50.3939 52.5301 50.4924 53.015C50.591 53.4999 50.5402 54.0025 50.3465 54.4592C50.1527 54.9159 49.8248 55.3062 49.404 55.5808C48.9833 55.8554 48.4886 56.002 47.9826 56.002H47.9765C47.2992 55.9999 46.6505 55.7356 46.1724 55.2669C45.6943 54.7983 45.4258 54.1637 45.4258 53.502V53.5H45.4237ZM32.1177 53.5C32.1185 52.3084 32.6037 51.1659 33.4666 50.3237C34.3295 49.4815 35.4994 49.0086 36.719 49.009C37.9387 49.0094 39.1083 49.483 39.9706 50.3258C40.8329 51.1685 41.3173 52.3114 41.3173 53.503C41.3173 54.6946 40.8329 55.8375 39.9706 56.6802C39.1083 57.523 37.9387 57.9966 36.719 57.997C35.4994 57.9974 34.3295 57.5245 33.4666 56.6823C32.6037 55.8401 32.1185 54.6976 32.1177 53.506V53.5ZM54.6356 53.5C54.6364 52.3084 55.1216 51.1659 55.9845 50.3237C56.8474 49.4815 58.0173 49.0086 59.2369 49.009C60.4566 49.0094 61.6262 49.483 62.4885 50.3258C63.3508 51.1685 63.8352 52.3114 63.8352 53.503C63.8352 54.6946 63.3508 55.8375 62.4885 56.6802C61.6262 57.523 60.4566 57.9966 59.2369 57.997C58.0173 57.9974 56.8474 57.5245 55.9845 56.6823C55.1216 55.8401 54.6364 54.6976 54.6356 53.506V53.5ZM43.3767 64.5C43.3767 63.61 43.6468 62.74 44.1529 61.9999C44.659 61.2599 45.3784 60.6831 46.22 60.3425C47.0616 60.0019 47.9877 59.9128 48.8812 60.0865C49.7746 60.2601 50.5953 60.6887 51.2395 61.318C51.8836 61.9474 52.3223 62.7492 52.5 63.6221C52.6778 64.495 52.5865 65.3998 52.2379 66.2221C51.8893 67.0443 51.299 67.7471 50.5415 68.2416C49.7841 68.7361 48.8936 69 47.9826 69H47.9744C46.7543 68.9979 45.5848 68.5228 44.7228 67.6792C43.8608 66.8355 43.3767 65.6921 43.3767 64.5ZM43.3767 42.5C43.3769 41.9098 43.4962 41.3255 43.7276 40.7804C43.959 40.2352 44.298 39.74 44.7254 39.3228C45.1527 38.9057 45.6599 38.5749 46.2181 38.3493C46.7763 38.1237 47.3745 38.0077 47.9785 38.008C48.5826 38.0083 49.1806 38.1248 49.7386 38.3509C50.2966 38.5769 50.8035 38.9082 51.2305 39.3257C51.6574 39.7432 51.996 40.2387 52.2269 40.7841C52.4578 41.3294 52.5765 41.9138 52.5763 42.504C52.5763 43.6959 52.0916 44.8389 51.229 45.6817C50.3664 46.5245 49.1964 46.998 47.9765 46.998C46.7565 46.998 45.5865 46.5245 44.7239 45.6817C43.8613 44.8389 43.3767 43.6959 43.3767 42.504V42.498V42.5Z" fill="white"/>
</g>
<defs>
<filter id="filter0_d_1_10" x="8" y="13" width="83" height="83" filterUnits="userSpaceOnUse" color-interpolation-filters="sRGB">
<feFlood flood-opacity="0" result="BackgroundImageFix"/>
<feColorMatrix in="SourceAlpha" type="matrix" values="0 0 0 0 0 0 0 0 0 0 0 0 0 0 0 0 0 0 127 0" result="hardAlpha"/>
<feOffset dy="4"/>
<feGaussianBlur stdDeviation="2"/>
<feComposite in2="hardAlpha" operator="out"/>
<feColorMatrix type="matrix" values="0 0 0 0 0 0 0 0 0 0 0 0 0 0 0 0 0 0 0.25 0"/>
<feBlend mode="normal" in2="BackgroundImageFix" result="effect1_dropShadow_1_10"/>
<feBlend mode="normal" in="SourceGraphic" in2="effect1_dropShadow_1_10" result="shape"/>
</filter>
<clipPath id="clip0_1_10">
<rect width="48" height="48" fill="white" transform="translate(27 26)"/>
</clipPath>
</defs>
</svg>
