<svg width="46" height="46" viewBox="0 0 46 46" fill="none" xmlns="http://www.w3.org/2000/svg">
<path d="M40.5 0.5H5.5C4.17392 0.5 2.90215 1.02678 1.96447 1.96447C1.02678 2.90215 0.5 4.17392 0.5 5.5V40.5C0.5 41.8261 1.02678 43.0979 1.96447 44.0355C2.90215 44.9732 4.17392 45.5 5.5 45.5H40.5C41.8261 45.5 43.0979 44.9732 44.0355 44.0355C44.9732 43.0979 45.5 41.8261 45.5 40.5V5.5C45.5 4.17392 44.9732 2.90215 44.0355 1.96447C43.0979 1.02678 41.8261 0.5 40.5 0.5ZM40.5 5.5V40.5H5.5V5.5H40.5ZM18 35.5L8 25.5L11.525 21.95L18 28.425L34.475 11.95L38 15.5" fill="#BABABA"/>
</svg>
