<svg width="48" height="48" viewBox="0 0 48 48" fill="none" xmlns="http://www.w3.org/2000/svg">
<g clip-path="url(#clip0_17_40)">
<path d="M24 7.5C22.0109 7.5 20.1032 8.29018 18.6967 9.6967C17.2902 11.1032 16.5 13.0109 16.5 15C16.5 16.9891 17.2902 18.8968 18.6967 20.3033C20.1032 21.7098 22.0109 22.5 24 22.5C25.9891 22.5 27.8968 21.7098 29.3033 20.3033C30.7098 18.8968 31.5 16.9891 31.5 15C31.5 13.0109 30.7098 11.1032 29.3033 9.6967C27.8968 8.29018 25.9891 7.5 24 7.5ZM16 26.5C14.0109 26.5 12.1032 27.2902 10.6967 28.6967C9.29018 30.1032 8.5 32.0109 8.5 34V36.376C8.5 37.884 9.592 39.168 11.08 39.41C19.636 40.808 28.364 40.808 36.92 39.41C37.6401 39.2927 38.2951 38.9232 38.7678 38.3673C39.2404 37.8115 39.5 37.1056 39.5 36.376V34C39.5 32.0109 38.7098 30.1032 37.3033 28.6967C35.8968 27.2902 33.9891 26.5 32 26.5H31.32C30.95 26.5 30.582 26.56 30.232 26.672L28.5 27.238C25.5759 28.1925 22.4241 28.1925 19.5 27.238L17.768 26.672C17.4173 26.5579 17.0508 26.4998 16.682 26.5H16Z" fill="white"/>
</g>
<defs>
<clipPath id="clip0_17_40">
<rect width="48" height="48" fill="white"/>
</clipPath>
</defs>
</svg>
