<svg width="40" height="40" viewBox="0 0 40 40" fill="none" xmlns="http://www.w3.org/2000/svg">
<path d="M29.9108 24.6078V19.2914C29.9108 18.8885 29.7504 18.5022 29.465 18.2173C29.1795 17.9324 28.7923 17.7724 28.3885 17.7724H26.8662C30.2762 15.3269 31.0678 10.5877 28.6169 7.13965C27.4309 5.5128 25.6486 4.41953 23.6583 4.09803C21.6681 3.77653 19.6311 4.25285 17.9913 5.42322C16.9713 6.15233 16.1493 7.13965 15.6013 8.2485C14.7506 7.72263 13.8041 7.36984 12.8162 7.21045C11.8283 7.05105 10.8186 7.08818 9.84514 7.31971C8.87171 7.55125 7.95378 7.9726 7.14419 8.55953C6.33461 9.14646 5.64936 9.88737 5.12789 10.7396C4.07043 12.4558 3.73938 14.5209 4.20755 16.4807C4.67573 18.4404 5.90478 20.1344 7.62445 21.1901C7.94413 21.3724 8.26382 21.5698 8.59872 21.6913V34.481C8.59872 34.8839 8.7591 35.2702 9.04459 35.5551C9.33007 35.84 9.71728 36 10.121 36H28.3885C28.7923 36 29.1795 35.84 29.465 35.5551C29.7504 35.2702 29.9108 34.8839 29.9108 34.481V29.1647L36 35.2405V18.5319L29.9108 24.6078ZM22.2994 8.65862C23.1068 8.65862 23.8812 8.97869 24.4522 9.54841C25.0232 10.1181 25.3439 10.8908 25.3439 11.6965C25.3439 12.5023 25.0232 13.275 24.4522 13.8447C23.8812 14.4144 23.1068 14.7345 22.2994 14.7345C21.4919 14.7345 20.7175 14.4144 20.1465 13.8447C19.5755 13.275 19.2548 12.5023 19.2548 11.6965C19.2548 10.8908 19.5755 10.1181 20.1465 9.54841C20.7175 8.97869 21.4919 8.65862 22.2994 8.65862ZM11.6433 11.6965C12.4508 11.6965 13.2252 12.0166 13.7962 12.5863C14.3671 13.1561 14.6879 13.9288 14.6879 14.7345C14.6879 15.5402 14.3671 16.3129 13.7962 16.8826C13.2252 17.4523 12.4508 17.7724 11.6433 17.7724C10.8358 17.7724 10.0614 17.4523 9.49046 16.8826C8.91949 16.3129 8.59872 15.5402 8.59872 14.7345C8.59872 13.9288 8.91949 13.1561 9.49046 12.5863C10.0614 12.0166 10.8358 11.6965 11.6433 11.6965Z" fill="#29BD52"/>
</svg>
