<svg width="88" height="88" viewBox="0 0 88 88" fill="none" xmlns="http://www.w3.org/2000/svg">
<g clip-path="url(#clip0_17_22)" filter="url(#filter0_d_17_22)">
<path fill-rule="evenodd" clip-rule="evenodd" d="M44 72.5C49.7055 72.5084 55.3117 71.0076 60.25 68.15V57.5C60.25 54.5163 59.0647 51.6548 56.9549 49.5451C54.8452 47.4353 51.9837 46.25 49 46.25H39C36.0163 46.25 33.1548 47.4353 31.045 49.5451C28.9353 51.6548 27.75 54.5163 27.75 57.5V68.15C32.6883 71.0076 38.2945 72.5084 44 72.5ZM67.75 57.5V62.185C72.0735 57.5565 74.9504 51.7656 76.027 45.5241C77.1036 39.2826 76.3331 32.8626 73.81 27.0531C71.2869 21.2437 67.1214 16.2981 61.8254 12.8242C56.5293 9.35037 50.3337 7.4997 44 7.4997C37.6663 7.4997 31.4707 9.35037 26.1746 12.8242C20.8786 16.2981 16.7131 21.2437 14.19 27.0531C11.6669 32.8626 10.8964 39.2826 11.973 45.5241C13.0496 51.7656 15.9265 57.5565 20.25 62.185V57.5C20.25 53.6344 21.4441 49.8631 23.669 46.702C25.894 43.5409 29.0411 41.1443 32.68 39.84C30.7919 37.6683 29.5684 34.9994 29.1553 32.1515C28.7423 29.3036 29.1571 26.397 30.3504 23.7784C31.5436 21.1598 33.465 18.9397 35.8852 17.3829C38.3054 15.8261 41.1223 14.9984 44 14.9984C46.8777 14.9984 49.6946 15.8261 52.1148 17.3829C54.535 18.9397 56.4564 21.1598 57.6496 23.7784C58.8429 26.397 59.2577 29.3036 58.8447 32.1515C58.4316 34.9994 57.2081 37.6683 55.32 39.84C58.9589 41.1443 62.106 43.5409 64.331 46.702C66.5559 49.8631 67.75 53.6344 67.75 57.5ZM44 80C54.6087 80 64.7828 75.7857 72.2843 68.2843C79.7857 60.7828 84 50.6087 84 40C84 29.3913 79.7857 19.2172 72.2843 11.7157C64.7828 4.21427 54.6087 0 44 0C33.3913 0 23.2172 4.21427 15.7157 11.7157C8.21427 19.2172 4 29.3913 4 40C4 50.6087 8.21427 60.7828 15.7157 68.2843C23.2172 75.7857 33.3913 80 44 80ZM51.5 30C51.5 31.9891 50.7098 33.8968 49.3033 35.3033C47.8968 36.7098 45.9891 37.5 44 37.5C42.0109 37.5 40.1032 36.7098 38.6967 35.3033C37.2902 33.8968 36.5 31.9891 36.5 30C36.5 28.0109 37.2902 26.1032 38.6967 24.6967C40.1032 23.2902 42.0109 22.5 44 22.5C45.9891 22.5 47.8968 23.2902 49.3033 24.6967C50.7098 26.1032 51.5 28.0109 51.5 30Z" fill="white"/>
</g>
<defs>
<filter id="filter0_d_17_22" x="0" y="0" width="88" height="88" filterUnits="userSpaceOnUse" color-interpolation-filters="sRGB">
<feFlood flood-opacity="0" result="BackgroundImageFix"/>
<feColorMatrix in="SourceAlpha" type="matrix" values="0 0 0 0 0 0 0 0 0 0 0 0 0 0 0 0 0 0 127 0" result="hardAlpha"/>
<feOffset dy="4"/>
<feGaussianBlur stdDeviation="2"/>
<feComposite in2="hardAlpha" operator="out"/>
<feColorMatrix type="matrix" values="0 0 0 0 0 0 0 0 0 0 0 0 0 0 0 0 0 0 0.25 0"/>
<feBlend mode="normal" in2="BackgroundImageFix" result="effect1_dropShadow_17_22"/>
<feBlend mode="normal" in="SourceGraphic" in2="effect1_dropShadow_17_22" result="shape"/>
</filter>
<clipPath id="clip0_17_22">
<rect width="80" height="80" fill="white" transform="translate(4)"/>
</clipPath>
</defs>
</svg>
