<svg width="40" height="40" viewBox="0 0 40 40" fill="none" xmlns="http://www.w3.org/2000/svg">
<path d="M35 35L27.7616 27.7617M27.7616 27.7617C28.9998 26.5235 29.9819 25.0536 30.652 23.4359C31.3221 21.8182 31.667 20.0843 31.667 18.3333C31.667 16.5823 31.3221 14.8485 30.652 13.2307C29.9819 11.613 28.9998 10.1431 27.7616 8.90499C26.5235 7.66685 25.0536 6.68469 23.4359 6.01461C21.8182 5.34453 20.0843 4.99965 18.3333 4.99965C16.5823 4.99965 14.8484 5.34453 13.2307 6.01461C11.613 6.68469 10.1431 7.66685 8.90498 8.90499C6.40443 11.4055 4.99963 14.797 4.99963 18.3333C4.99963 21.8696 6.40443 25.2611 8.90498 27.7617C11.4055 30.2622 14.797 31.667 18.3333 31.667C21.8696 31.667 25.2611 30.2622 27.7616 27.7617Z" stroke="#717171" stroke-width="3.75" stroke-linecap="round" stroke-linejoin="round"/>
</svg>
